<?xml version="1.0" encoding="UTF-8"?>
<svg version="1.1" xmlns="http://www.w3.org/2000/svg" width="50" height="50">
<path d="M0 0 C2 2 2 2 2.22705078 5.34814453 C2.22673375 6.77640633 2.21541361 8.20469212 2.1953125 9.6328125 C2.1924826 10.38464813 2.18965271 11.13648376 2.18673706 11.91110229 C2.17552874 14.31589578 2.15042352 16.72031881 2.125 19.125 C2.11497102 20.75390088 2.10584503 22.38280758 2.09765625 24.01171875 C2.07558735 28.00795556 2.04105351 32.00391494 2 36 C1.01 35.67 0.02 35.34 -1 35 C-0.67 34.01 -0.34 33.02 0 32 C-0.76957031 32.433125 -0.76957031 32.433125 -1.5546875 32.875 C-10.63363352 37.27691322 -21.66807312 37.69631298 -31.3828125 35.09375 C-33.68155792 34.17687148 -35.84497142 33.2128804 -38 32 C-36.51852567 35.9215497 -35.55291666 37.67930834 -31.875 39.8125 C-28.31143631 41.12419472 -24.79177681 41.43531006 -21.015625 41.59375 C-18.51963535 42.09681768 -17.61208331 43.08182492 -16 45 C-24.15607073 45.50449922 -30.73505544 44.9653283 -38 41 C-40.94566039 38.05433961 -40.40192098 34.84427138 -40.4765625 30.88671875 C-40.49270599 30.08015335 -40.50884949 29.27358795 -40.52548218 28.44258118 C-40.55316181 26.73369951 -40.57460719 25.02470731 -40.59033203 23.31567383 C-40.62475131 20.70635336 -40.71247568 18.10211489 -40.80078125 15.49414062 C-41.02795882 3.37150564 -41.02795882 3.37150564 -38.31542969 -0.24755859 C-36.18548726 -1.62189036 -34.45073447 -2.38180943 -32 -3 C-31.33516602 -3.18884766 -30.67033203 -3.37769531 -29.98535156 -3.57226562 C-20.4189098 -5.63330915 -8.4445901 -5.16477162 0 0 Z M-36 3 C-37.12815365 5.6147267 -37.12815365 5.6147267 -37 8 C-30.85667236 12.23207015 -26.68249263 13.22313065 -19.3125 13.3125 C-18.53455078 13.34150391 -17.75660156 13.37050781 -16.95507812 13.40039062 C-11.29930609 13.46171259 -6.61515755 12.43820714 -2 9 C-0.87184635 6.3852733 -0.87184635 6.3852733 -1 4 C-7.14332764 -0.23207015 -11.31750737 -1.22313065 -18.6875 -1.3125 C-19.46544922 -1.34150391 -20.24339844 -1.37050781 -21.04492188 -1.40039062 C-26.70069391 -1.46171259 -31.38484245 -0.43820714 -36 3 Z M-38 12 C-37.9688059 14.86734521 -37.9688059 14.86734521 -37 18 C-31.25836154 22.61827441 -26.46466369 23.22577207 -19.3125 23.3125 C-18.53455078 23.34150391 -17.75660156 23.37050781 -16.95507812 23.40039062 C-11.23746503 23.46238309 -6.70788797 22.36663364 -2 19 C0.36980013 16.04622502 0.36980013 16.04622502 0 12 C-0.76957031 12.32484375 -0.76957031 12.32484375 -1.5546875 12.65625 C-12.88481673 16.77629699 -26.86010876 16.70226565 -38 12 Z M-38 22 C-37.9688059 24.86734521 -37.9688059 24.86734521 -37 28 C-31.25836154 32.61827441 -26.46466369 33.22577207 -19.3125 33.3125 C-18.53455078 33.34150391 -17.75660156 33.37050781 -16.95507812 33.40039062 C-11.23746503 33.46238309 -6.70788797 32.36663364 -2 29 C0.36980013 26.04622502 0.36980013 26.04622502 0 22 C-0.76957031 22.32484375 -0.76957031 22.32484375 -1.5546875 22.65625 C-12.88481673 26.77629699 -26.86010876 26.70226565 -38 22 Z " fill="#FFFFFF" transform="translate(44,4)"/>
<path d="M0 0 C1.98 0 3.96 0 6 0 C6 1.98 6 3.96 6 6 C4.02 6 2.04 6 0 6 C0 4.02 0 2.04 0 0 Z " fill="#FFFFFF" transform="translate(44,42)"/>
<path d="M0 0 C1.98 0 3.96 0 6 0 C6 1.98 6 3.96 6 6 C4.02 6 2.04 6 0 6 C0 4.02 0 2.04 0 0 Z " fill="#FFFFFF" transform="translate(36,42)"/>
<path d="M0 0 C1.98 0 3.96 0 6 0 C6 1.98 6 3.96 6 6 C4.02 6 2.04 6 0 6 C0 4.02 0 2.04 0 0 Z " fill="#FFFFFF" transform="translate(28,42)"/>
</svg>
